<?xml version="1.0" encoding="UTF-8"?>
<svg id="Layer_1" data-name="Layer 1" xmlns="http://www.w3.org/2000/svg" version="1.1" viewBox="0 0 1920 1080">
  <defs>
    <style>
      .cls-1 {
        fill: #000;
      }

      .cls-1, .cls-2 {
        stroke-width: 0px;
      }

      .cls-2 {
        fill: #0c2753;
      }
    </style>
  </defs>
  <path class="cls-1" d="M1926.1,577.4c2.4,0,4.6-2.1,4.5-4.5s-2-4.5-4.5-4.5-4.6,2.1-4.5,4.5,2,4.5,4.5,4.5h0Z"/>
  <path class="cls-1" d="M79.2,689c1.9,0,1.9-3,0-3s-1.9,3,0,3h0Z"/>
  <path class="cls-2" d="M1906.6,607.5c-51.1-11.3-141.2-139.6-186.1-139-49,.7-183.6.7-219-33.1-35.1-33.5-68.7-91.3-114.5-107.4-47.5-16.7-85.2,20.9-117.2,59.7-23.4,28.3-42.7,61.9-74.8,79.9-30.8,17.3-70.9,16.4-101-2-37.8-23.2-63.1-72.3-107.4-73.7-40.3-1.2-68.4,38.4-103.7,57.8-33.3,18.3-74.4,18.3-111,7.6-36.5-10.7-58.2-45.3-90-66.3-15.2-10.1-26.8-28.9-45-30-34.1-2.1-75.3,51.1-99,75.7-28.6,29.7-62.4,54.3-99.4,72.4-32.3,15.8-69.6,26.7-104,16.3-35.9-10.8-82.6-88.1-119.5-94.4-45.8-7.8-83.7,54.7-116,88-31.7,32.8-51.3,86.3-96.6,88.5H.5c-.2,0-.3.1-.5.1h.5v286.9h1919v-287h-12.9Z"/>
</svg>