<?xml version="1.0" encoding="UTF-8"?>
<svg xmlns="http://www.w3.org/2000/svg" xmlns:xlink="http://www.w3.org/1999/xlink" viewBox="0 0 1171.56 362.78">
  <defs>
    <style>
      .cls-1 {
        fill: #fff;
      }

      .cls-2 {
        fill: none;
      }

      .cls-3 {
        clip-path: url(#clippath-1);
      }

      .cls-4 {
        isolation: isolate;
      }

      .cls-5 {
        fill: url(#linear-gradient);
        mix-blend-mode: multiply;
        opacity: .65;
      }

      .cls-6 {
        fill: #5f3b1e;
      }

      .cls-7 {
        clip-path: url(#clippath);
      }

      .cls-8 {
        fill: #0c2753;
      }

      .cls-9 {
        fill: #84c3e8;
      }
    </style>
    <clipPath id="clippath">
      <path class="cls-2" d="M643.62,1061.07c9.06,9.58,17.78,18.72,26.4,27.94,6.13,6.55,12.07,13.28,18.22,19.81,26.1,27.77,52.29,55.46,78.32,83.29,2.63,2.81,4.48,3.07,7.95,1.3,52.3-26.79,104.69-53.39,157.06-80.04,5-2.54,10.09-4.92,14.92-7.76,2.99-1.76,5.21-1.28,8.06.34,48.93,27.7,97.8,55.5,146.95,82.8,26.63,14.79,53.77,28.69,80.67,43,.41.22.72.65,1.84,1.7H19.3c-.1-.46-.2-.91-.29-1.37,5.4-2.55,10.75-5.22,16.21-7.61,22.37-9.8,44.8-19.46,67.16-29.27,27.64-12.12,55.24-24.34,82.87-36.49,16.15-7.1,32.31-14.17,48.48-21.22,17.69-7.72,35.35-15.49,53.14-22.98,2.07-.87,5.11-.86,7.21-.03,18.85,7.44,37.56,15.23,56.36,22.78,16.55,6.65,33.12,13.25,49.78,19.63,22.5,8.63,45.06,17.12,67.7,25.37,2.01.73,5.42.13,7.13-1.2,15.04-11.71,29.8-23.77,44.71-35.64,17.88-14.24,35.82-28.4,53.72-42.6.78-.62,1.49-1.34,2.17-2.07,2.87-3.05,5.79-4.08,9.52-1.09,1.75,1.41,4.36,1.72,6.15,3.1,4.79,3.69,8.28,1.84,11.95-1.85,11.86-11.94,23.87-23.73,35.84-35.58,1.29-1.28,2.64-2.5,4.51-4.27ZM623.96,1101.47c4.98-.85,10.75,2.25,8.49-5.93-.54-1.95,1.53-4.63,2.88-8.27.64,2.81.94,4.13,1.37,6,1.75-1.23,3.02-2.13,4.29-3.03.3.15.59.3.89.45-1.51,3.08-3.01,6.16-4.97,10.17,2.68,0,5.11.44,7.18-.24.73-.24.55-3.21.82-4.93.18-1.14.23-2.35.65-3.4,1.85-4.6,3.82-9.15,5.91-14.13-5.44-3.47-7.92,2.17-11.71,5.51-.4-1.81-.27-3.61-1.02-4.12-1.6-1.1-3.63-1.87-5.55-2.04-.57-.05-2.12,2.49-1.92,3.61,1.04,5.77-1.2,10.51-4.05,15.16-.81,1.32-1.65,2.63-3.26,5.18Z"/>
    </clipPath>
    <clipPath id="clippath-1">
      <polyline class="cls-2" points="1402.8 916.84 1402.8 1322.08 -197.53 1322.08 -197.53 916.84"/>
    </clipPath>
    <linearGradient id="linear-gradient" x1="-497.33" y1="111.1" x2="-191.1" y2="111.1" gradientTransform="translate(521.5 762.13) scale(1.25 1.12)" gradientUnits="userSpaceOnUse">
      <stop offset="0" stop-color="#fff"/>
      <stop offset=".37" stop-color="#fdfdfd"/>
      <stop offset=".51" stop-color="#f6f6f6"/>
      <stop offset=".6" stop-color="#eaeaea"/>
      <stop offset=".68" stop-color="#d9d9d9"/>
      <stop offset=".75" stop-color="#c3c3c3"/>
      <stop offset=".8" stop-color="#a8a8a8"/>
      <stop offset=".86" stop-color="#878787"/>
      <stop offset=".91" stop-color="#626262"/>
      <stop offset=".95" stop-color="#373737"/>
      <stop offset=".99" stop-color="#090909"/>
      <stop offset="1" stop-color="#000"/>
    </linearGradient>
  </defs>
  <g class="cls-4">
    <g id="Layer_1" data-name="Layer 1">
      <g>
        <g>
          <path class="cls-8" d="M1073.61,190.56h41.44v5h-6.11c-1.73,0-3.03.34-3.87,1.02-.85.68-1.27,1.59-1.27,2.74v26.06h34.12v-24.71c0-1.9-.45-3.22-1.36-3.98-.91-.75-2.43-1.13-4.57-1.13h-5.2v-5h41.5v5h-5.56c-2.14,0-3.65.36-4.54,1.07-.89.72-1.33,1.83-1.33,3.33v60.01c0,1.76.45,3.04,1.36,3.84s2.19,1.21,3.84,1.21h6.23v5h-41.5v-5h6.29c1.73,0,2.97-.34,3.72-1.02.75-.68,1.12-1.83,1.12-3.44v-28.58h-34.12v28.58c0,1.54.36,2.67,1.09,3.38.73.72,1.71,1.08,2.96,1.08h7.2v5h-41.44v-5h6.65c1.53,0,2.65-.35,3.36-1.05.7-.7,1.06-1.83,1.06-3.41v-59.91c0-1.86-.46-3.18-1.39-3.95-.93-.77-2.42-1.15-4.48-1.15h-5.2v-5Z"/>
          <path class="cls-8" d="M829.99,190.56h77.33l1.97,30.2h-5.44c-1.28-6.45-2.93-11.48-4.96-15.1-2.03-3.62-4.36-6.19-6.97-7.71-2.61-1.52-5.47-2.28-8.58-2.28-1.79,0-3.11.33-3.95.99-.84.66-1.26,1.62-1.26,2.87v61.46c0,1.18.41,2.15,1.23,2.9.82.75,1.8,1.13,2.96,1.13h10.05v5h-47.31v-5h9.57c1.44,0,2.57-.37,3.41-1.1.84-.73,1.26-1.71,1.26-2.93v-61.14c0-1.43-.43-2.49-1.29-3.17-.86-.68-2.2-1.02-4.04-1.02-10.17,0-17.05,8.36-20.63,25.09h-5.26l1.91-30.2Z"/>
          <path class="cls-8" d="M764.66,187.56c8.3,0,15.95,1.82,22.95,5.47,7.01,3.65,12.46,8.62,16.37,14.92,3.91,6.3,5.86,13.4,5.86,21.31,0,12.02-4.32,22.04-12.95,30.06-8.63,8.02-19.34,12.02-32.12,12.02-8.49,0-16.1-1.82-22.83-5.47s-12.04-8.57-15.93-14.76c-3.89-6.19-5.83-13.39-5.83-21.58,0-12.17,4.27-22.21,12.8-30.11,8.53-7.91,19.09-11.86,31.67-11.86ZM765.02,192.76c-4.72,0-8.82,1.18-12.29,3.55-3.47,2.36-6.23,6.18-8.28,11.45-2.04,5.27-3.07,12.49-3.07,21.66,0,9.64.94,16.94,2.83,21.91,1.88,4.96,4.63,8.64,8.25,11.02,3.61,2.38,7.82,3.57,12.62,3.57,7.1,0,12.78-2.77,17.03-8.31,4.25-5.54,6.37-15.17,6.37-28.89,0-9.6-.91-16.81-2.74-21.63-1.83-4.82-4.54-8.41-8.16-10.78-3.61-2.36-7.8-3.55-12.56-3.55Z"/>
          <path class="cls-8" d="M703.56,196.12l3.98-7.93h4.27l1.44,32h-5.31c-1.65-9.21-4.77-16.04-9.35-20.5-4.58-4.46-9.81-6.69-15.7-6.69-6.46,0-11.81,2.88-16.04,8.63-4.23,5.75-6.35,14.83-6.35,27.23,0,13.12,2.33,22.86,6.98,29.22,3.73,5,9.23,7.49,16.51,7.49s13.39-2.5,18.35-7.5c3.58-3.63,6.08-8.99,7.5-16.08h5.19c-1.23,9.1-4.94,16.29-11.14,21.58-6.2,5.29-13.81,7.93-22.86,7.93-11.7,0-21.5-3.86-29.41-11.57-7.91-7.71-11.86-17.59-11.86-29.63,0-13.37,4.56-24.05,13.68-32.03,7.77-6.79,16.87-10.19,27.3-10.19,4.12,0,7.94.6,11.46,1.81,3.52,1.21,7.3,3.28,11.34,6.23Z"/>
          <path class="cls-8" d="M1054.06,196.58l3.98-7.9h4.27l1.44,31.86h-5.31c-1.65-9.17-4.77-15.97-9.35-20.42-4.58-4.44-9.81-6.66-15.7-6.66-6.46,0-11.81,2.86-16.04,8.59-4.23,5.73-6.35,14.76-6.35,27.11,0,13.06,2.33,22.77,6.98,29.1,3.73,4.98,9.23,7.46,16.51,7.46s13.39-2.49,18.35-7.47c3.58-3.62,6.08-8.95,7.5-16.01h5.19c-1.23,9.06-4.94,16.23-11.14,21.49-6.2,5.27-13.81,7.9-22.86,7.9-11.7,0-21.5-3.84-29.41-11.52-7.91-7.68-11.86-17.51-11.86-29.5,0-13.32,4.56-23.95,13.68-31.89,7.77-6.76,16.87-10.15,27.3-10.15,4.12,0,7.94.6,11.46,1.8,3.52,1.2,7.3,3.27,11.34,6.21Z"/>
          <path class="cls-8" d="M603.21,190.56h32.77v5h-5.92c-1.27,0-2.19.31-2.77.94-.58.63-.86,1.55-.86,2.77v61.52c0,1.43.3,2.45.91,3.06.78.79,1.9,1.18,3.37,1.18h5.28v5h-32.77v-5h5.02c1.73,0,2.95-.36,3.65-1.08.71-.72,1.06-1.77,1.06-3.17v-60.82c0-1.5-.32-2.61-.97-3.33-.65-.72-1.66-1.07-3.05-1.07h-5.71v-5Z"/>
          <path class="cls-8" d="M517.89,190.56h36.64v5h-2.75c-2.5,0-4.15.23-4.95.7-.8.47-1.2,1.09-1.2,1.88,0,.93.68,2.42,2.05,4.46l12.37,18.19,9.75-12.71c2.14-2.76,3.2-5.37,3.2-7.84,0-1.5-.44-2.66-1.33-3.47-.88-.81-2.18-1.21-3.88-1.21h-2.3v-5h29.14v5h-2.2c-1.83,0-3.45.41-4.86,1.24-1.41.82-3.02,2.36-4.81,4.62l-19.19,24.36,24.51,35.07c1.17,1.68,2.24,2.8,3.2,3.36.97.56,2.09.83,3.35.83h2.45v5h-36.09v-5h3.8c1.8,0,3.1-.31,3.9-.94.8-.63,1.2-1.42,1.2-2.39,0-.82-.53-1.88-1.6-3.17l-.51-.74-13.76-20.08-11.51,15.12c-1.57,2.08-2.35,4.28-2.35,6.61,0,1.76.43,3.06,1.3,3.92,1.13,1.11,2.5,1.67,4.1,1.67h2.8v5h-30.49v-5h1.9c1.54,0,3.15-.52,4.86-1.56,2.8-1.79,4.97-3.69,6.51-5.7l19.4-24.95-23.3-33.13c-1.24-1.72-2.29-2.84-3.15-3.36-.87-.52-2-.78-3.4-.78h-2.8v-5Z"/>
          <path class="cls-8" d="M322.5,190.56h35.67l20.11,53.84,20.03-53.84h36.59v5h-7.94c-1.96,0-3.32.32-4.06.97-.74.65-1.11,1.76-1.11,3.33v60.71c0,1.54.4,2.6,1.2,3.17,1.2.86,2.83,1.29,4.87,1.29h7.04v5h-45.1v-5h8.5c1.56,0,2.74-.39,3.56-1.18.82-.79,1.23-1.88,1.23-3.28v-65.01l-28.15,74.47h-5.3l-28.06-75.11v58.08c0,3.33,1.18,6.06,3.53,8.19,2.36,2.13,5.77,3.41,10.24,3.84v5h-32.88v-5c4.15-.32,7.38-1.63,9.67-3.92,2.3-2.29,3.44-5.21,3.44-8.76v-51.36c0-2.18-.42-3.64-1.26-4.35-.84-.72-2.46-1.07-4.85-1.07h-7.01v-5Z"/>
          <path class="cls-8" d="M190.79,190.56h31.67v5h-2.98c-1.88,0-3.15.22-3.81.67-.66.45-.98,1.12-.98,2.01,0,.64.12,1.38.37,2.2l15.68,46.9,13.58-40.8-2.34-6.97c-.5-1.43-1.19-2.42-2.07-2.96-1.17-.72-2.71-1.07-4.62-1.07h-3.83v-5h36.51v5h-3.36c-2.46,0-4.12.29-4.99.86-.87.57-1.31,1.42-1.31,2.53,0,.47.09.97.27,1.5l15.54,46.9,13.07-41.32c.43-1.25.64-2.47.64-3.65,0-2.18-.58-3.87-1.73-5.05-1.15-1.18-2.67-1.77-4.55-1.77h-2.24v-5h25.66v5c-2.84.07-5.1.74-6.79,2.01-1.69,1.27-2.92,3.16-3.7,5.67l-21.86,68.23h-6.53l-18.56-55.7-18.54,55.7h-6.48l-24.08-71.89c-.5-1.5-1.16-2.55-1.97-3.14s-1.87-.89-3.15-.89h-2.51v-5Z"/>
          <path class="cls-8" d="M113.61,190.56h68.94l1.55,27.78h-4.71c-1.11-6.55-2.49-11.27-4.15-14.16-1.66-2.88-3.84-5.04-6.53-6.47-2.69-1.43-6.22-2.15-10.57-2.15h-10.81c-1.68,0-2.89.33-3.64.99-.75.66-1.12,1.59-1.12,2.77v27.56h3.69c4.25,0,7.54-1.22,9.88-3.65,2.34-2.44,3.72-6.36,4.15-11.77h4.82v36.97h-4.82c-.32-6.13-1.66-10.44-4.01-12.95-2.36-2.51-5.91-3.76-10.65-3.76h-3.05v29.39c0,1.29.37,2.2,1.12,2.74,1.14.79,2.78,1.18,4.92,1.18h9.53c6.53,0,11.87-2.1,16.01-6.29,4.14-4.19,6.71-10.51,7.71-18.97h4.82l-1.18,30.25h-71.89v-5h7.12c1.61,0,2.83-.41,3.67-1.24.84-.82,1.26-1.93,1.26-3.33v-61.14c0-1.29-.42-2.24-1.26-2.85-.84-.61-2.35-.91-4.52-.91h-6.26v-5Z"/>
          <path class="cls-8" d="M913.12,190.56h68.94l1.55,27.78h-4.71c-1.11-6.55-2.49-11.27-4.15-14.16-1.66-2.88-3.84-5.04-6.53-6.47-2.69-1.43-6.22-2.15-10.57-2.15h-10.81c-1.68,0-2.89.33-3.64.99-.75.66-1.12,1.59-1.12,2.77v27.56h3.69c4.25,0,7.54-1.22,9.88-3.65,2.34-2.44,3.72-6.36,4.15-11.77h4.82v36.97h-4.82c-.32-6.13-1.66-10.44-4.01-12.95-2.36-2.51-5.91-3.76-10.65-3.76h-3.05v29.39c0,1.29.37,2.2,1.12,2.74,1.14.79,2.78,1.18,4.92,1.18h9.53c6.53,0,11.86-2.1,16-6.29,4.14-4.19,6.71-10.51,7.71-18.97h4.82l-1.18,30.25h-71.89v-5h7.12c1.61,0,2.83-.41,3.67-1.24.84-.82,1.26-1.93,1.26-3.33v-61.14c0-1.29-.42-2.24-1.26-2.85-.84-.61-2.35-.91-4.52-.91h-6.26v-5Z"/>
          <path class="cls-8" d="M440.78,190.56h68.94l1.55,27.78h-4.71c-1.11-6.55-2.49-11.27-4.15-14.16-1.66-2.88-3.84-5.04-6.53-6.47-2.69-1.43-6.22-2.15-10.57-2.15h-10.81c-1.68,0-2.89.33-3.64.99-.75.66-1.12,1.59-1.12,2.77v27.56h3.69c4.25,0,7.54-1.22,9.88-3.65,2.34-2.44,3.72-6.36,4.15-11.77h4.82v36.97h-4.82c-.32-6.13-1.66-10.44-4.01-12.95-2.36-2.51-5.91-3.76-10.65-3.76h-3.05v29.39c0,1.29.37,2.2,1.12,2.74,1.14.79,2.78,1.18,4.92,1.18h9.53c6.53,0,11.87-2.1,16.01-6.29,4.14-4.19,6.71-10.51,7.71-18.97h4.82l-1.18,30.25h-71.89v-5h7.12c1.61,0,2.83-.41,3.67-1.24.84-.82,1.26-1.93,1.26-3.33v-61.14c0-1.29-.42-2.24-1.26-2.85-.84-.61-2.35-.91-4.52-.91h-6.26v-5Z"/>
          <path class="cls-8" d="M4.06,190.56h29.81l52.03,54.48v-37.02c0-3.65-1.26-6.58-3.77-8.78-2.51-2.2-6.08-3.43-10.72-3.68v-5h35.08v5c-4.89.43-8.4,1.64-10.52,3.63-2.12,1.99-3.18,4.93-3.18,8.84v62h-7.51l-59.2-62.69v43.42c0,4.97,1.37,8.6,4.12,10.87,2.75,2.27,6.16,3.41,10.23,3.41h1.62v5H3.28v-5h2.66c3.81,0,7.01-1.25,9.61-3.76,2.6-2.5,3.9-5.72,3.9-9.66v-51.3c-2.9-3.17-6.6-4.76-11.11-4.76h-4.29v-5Z"/>
        </g>
        <path class="cls-8" d="M3.28,293.82v-4.38h1164.59c.12,1.27.25,2.66.41,4.38H3.28Z"/>
        <path class="cls-8" d="M627.89-.06c9.06,9.58,17.78,18.72,26.4,27.94,6.13,6.55,12.07,13.28,18.22,19.81,26.1,27.77,52.29,55.46,78.32,83.29,2.63,2.81,4.48,3.07,7.95,1.3,52.3-26.79,104.69-53.39,157.06-80.04,5-2.54,10.09-4.92,14.92-7.76,2.99-1.76,5.21-1.28,8.06.34,48.93,27.7,97.8,55.5,146.95,82.8,26.63,14.79,53.77,28.69,80.67,43,.41.22.72.65,1.84,1.7H3.57c-.1-.46-.2-.91-.29-1.37,5.4-2.55,10.75-5.22,16.21-7.61,22.37-9.8,44.8-19.46,67.16-29.27,27.64-12.12,55.24-24.34,82.87-36.49,16.15-7.1,32.31-14.17,48.48-21.22,17.69-7.72,35.35-15.49,53.14-22.98,2.07-.87,5.11-.86,7.21-.03,18.85,7.44,37.56,15.23,56.36,22.78,16.55,6.65,33.12,13.25,49.78,19.63,22.5,8.63,45.06,17.12,67.7,25.37,2.01.73,5.42.13,7.13-1.2,15.04-11.71,29.8-23.77,44.71-35.64,17.88-14.24,35.82-28.4,53.72-42.6.78-.62,1.49-1.34,2.17-2.07,2.87-3.05,5.79-4.08,9.52-1.09,1.75,1.41,4.36,1.72,6.15,3.1,4.79,3.69,8.28,1.84,11.95-1.85,11.86-11.94,23.87-23.73,35.84-35.58,1.29-1.28,2.64-2.5,4.51-4.27ZM608.23,40.35c4.98-.85,10.75,2.25,8.49-5.93-.54-1.95,1.53-4.63,2.88-8.27.64,2.81.94,4.13,1.37,6,1.75-1.23,3.02-2.13,4.29-3.03.3.15.59.3.89.45-1.51,3.08-3.01,6.16-4.97,10.17,2.68,0,5.11.44,7.18-.24.73-.24.55-3.21.82-4.93.18-1.14.23-2.35.65-3.4,1.85-4.6,3.82-9.15,5.91-14.13-5.44-3.47-7.92,2.17-11.71,5.51-.4-1.81-.27-3.61-1.02-4.12-1.6-1.1-3.63-1.87-5.55-2.04-.57-.05-2.12,2.49-1.92,3.61,1.04,5.77-1.2,10.51-4.05,15.16-.81,1.32-1.65,2.63-3.26,5.18Z"/>
        <path class="cls-1" d="M608.23,40.35c1.61-2.56,2.45-3.86,3.26-5.18,2.84-4.65,5.09-9.39,4.05-15.16-.2-1.12,1.35-3.66,1.92-3.61,1.92.17,3.95.94,5.55,2.04.75.51.62,2.31,1.02,4.12,3.79-3.35,6.27-8.98,11.71-5.51-2.1,4.98-4.06,9.53-5.91,14.13-.42,1.05-.47,2.26-.65,3.4-.27,1.72-.09,4.69-.82,4.93-2.07.68-4.5.24-7.18.24,1.96-4.02,3.47-7.09,4.97-10.17-.3-.15-.59-.3-.89-.45-1.27.9-2.54,1.8-4.29,3.03-.43-1.88-.73-3.19-1.37-6-1.35,3.64-3.42,6.31-2.88,8.27,2.26,8.18-3.51,5.09-8.49,5.93Z"/>
        <g>
          <g>
            <path class="cls-8" d="M4.08,332.51l6.3-.61c.38,2.12,1.15,3.67,2.31,4.66,1.16.99,2.73,1.49,4.7,1.49,2.09,0,3.66-.44,4.72-1.32,1.06-.88,1.59-1.91,1.59-3.1,0-.76-.22-1.4-.67-1.94-.45-.53-1.22-1-2.33-1.39-.76-.26-2.49-.73-5.19-1.4-3.47-.86-5.91-1.92-7.31-3.17-1.97-1.77-2.95-3.92-2.95-6.46,0-1.63.46-3.16,1.39-4.59.93-1.42,2.26-2.51,4.01-3.25,1.74-.74,3.85-1.12,6.32-1.12,4.03,0,7.06.88,9.09,2.65,2.04,1.77,3.1,4.12,3.21,7.07l-6.48.28c-.28-1.65-.87-2.83-1.78-3.56-.91-.72-2.28-1.08-4.1-1.08s-3.36.39-4.42,1.16c-.69.5-1.03,1.16-1.03,1.99,0,.76.32,1.41.96,1.95.82.69,2.8,1.4,5.95,2.15,3.15.74,5.48,1.51,6.99,2.31,1.51.8,2.69,1.88,3.55,3.26s1.28,3.08,1.28,5.11c0,1.84-.51,3.56-1.53,5.17-1.02,1.61-2.47,2.8-4.33,3.58-1.87.78-4.2,1.17-6.98,1.17-4.06,0-7.17-.94-9.35-2.81-2.17-1.87-3.47-4.61-3.9-8.2Z"/>
            <path class="cls-8" d="M56.6,331.15l6.28,1.99c-.96,3.5-2.56,6.1-4.8,7.8s-5.08,2.55-8.53,2.55c-4.26,0-7.76-1.46-10.51-4.37-2.74-2.91-4.12-6.89-4.12-11.94,0-5.34,1.38-9.49,4.14-12.44,2.76-2.96,6.38-4.43,10.88-4.43,3.93,0,7.11,1.16,9.57,3.48,1.46,1.37,2.55,3.34,3.28,5.91l-6.41,1.53c-.38-1.66-1.17-2.98-2.37-3.94-1.2-.96-2.67-1.45-4.39-1.45-2.38,0-4.31.85-5.79,2.56s-2.22,4.47-2.22,8.3c0,4.06.73,6.95,2.19,8.67,1.46,1.72,3.36,2.58,5.69,2.58,1.72,0,3.2-.55,4.44-1.64,1.24-1.09,2.13-2.82,2.67-5.17Z"/>
            <path class="cls-8" d="M68.69,342.95v-32.09h6.48v32.09h-6.48Z"/>
            <path class="cls-8" d="M81.79,342.95v-32.09h23.79v5.43h-17.31v7.11h16.11v5.41h-16.11v8.73h17.93v5.41h-24.41Z"/>
            <path class="cls-8" d="M112.21,342.95v-32.09h6.3l13.13,21.43v-21.43h6.02v32.09h-6.5l-12.94-20.93v20.93h-6.02Z"/>
            <path class="cls-8" d="M165.49,331.15l6.28,1.99c-.96,3.5-2.56,6.1-4.8,7.8s-5.08,2.55-8.53,2.55c-4.26,0-7.76-1.46-10.51-4.37-2.74-2.91-4.12-6.89-4.12-11.94,0-5.34,1.38-9.49,4.14-12.44,2.76-2.96,6.38-4.43,10.88-4.43,3.93,0,7.11,1.16,9.57,3.48,1.46,1.37,2.55,3.34,3.28,5.91l-6.41,1.53c-.38-1.66-1.17-2.98-2.37-3.94-1.2-.96-2.67-1.45-4.39-1.45-2.38,0-4.31.85-5.79,2.56s-2.22,4.47-2.22,8.3c0,4.06.73,6.95,2.19,8.67,1.46,1.72,3.36,2.58,5.69,2.58,1.72,0,3.2-.55,4.44-1.64,1.24-1.09,2.13-2.82,2.67-5.17Z"/>
            <path class="cls-8" d="M177.78,342.95v-32.09h23.79v5.43h-17.31v7.11h16.11v5.41h-16.11v8.73h17.93v5.41h-24.41Z"/>
          </g>
          <g>
            <path class="cls-8" d="M254.22,342.95v-32.09h23.79v5.43h-17.31v7.11h16.11v5.41h-16.11v8.73h17.93v5.41h-24.41Z"/>
            <path class="cls-8" d="M284.64,342.95v-32.09h6.3l13.13,21.43v-21.43h6.02v32.09h-6.5l-12.94-20.93v20.93h-6.02Z"/>
            <path class="cls-8" d="M332.32,331.15v-5.41h13.96v12.78c-1.36,1.31-3.32,2.47-5.9,3.47-2.58,1-5.18,1.5-7.83,1.5-3.36,0-6.28-.7-8.78-2.11-2.5-1.41-4.37-3.42-5.63-6.04-1.26-2.62-1.88-5.47-1.88-8.55,0-3.34.7-6.31,2.1-8.91s3.45-4.59,6.15-5.98c2.06-1.06,4.62-1.6,7.68-1.6,3.98,0,7.1.84,9.34,2.51,2.24,1.67,3.68,3.98,4.32,6.93l-6.44,1.2c-.45-1.58-1.3-2.82-2.55-3.73-1.25-.91-2.81-1.37-4.67-1.37-2.83,0-5.08.9-6.75,2.69-1.67,1.8-2.51,4.46-2.51,7.99,0,3.81.85,6.67,2.54,8.57s3.91,2.86,6.65,2.86c1.36,0,2.72-.27,4.08-.8,1.36-.53,2.54-1.18,3.51-1.94v-4.07h-7.42Z"/>
            <path class="cls-8" d="M352.51,342.95v-32.09h6.48v32.09h-6.48Z"/>
            <path class="cls-8" d="M365.68,342.95v-32.09h6.3l13.13,21.43v-21.43h6.02v32.09h-6.5l-12.94-20.93v20.93h-6.02Z"/>
            <path class="cls-8" d="M398.43,342.95v-32.09h23.79v5.43h-17.31v7.11h16.11v5.41h-16.11v8.73h17.93v5.41h-24.41Z"/>
            <path class="cls-8" d="M428.78,342.95v-32.09h23.79v5.43h-17.31v7.11h16.11v5.41h-16.11v8.73h17.93v5.41h-24.41Z"/>
            <path class="cls-8" d="M459.15,342.95v-32.09h13.64c3.43,0,5.92.29,7.47.86,1.55.58,2.8,1.6,3.73,3.08.93,1.47,1.4,3.16,1.4,5.06,0,2.41-.71,4.4-2.12,5.97-1.42,1.57-3.53,2.56-6.35,2.97,1.4.82,2.56,1.72,3.47,2.69.91.98,2.14,2.71,3.69,5.21l3.92,6.26h-7.75l-4.68-6.98c-1.66-2.5-2.8-4.07-3.41-4.72-.61-.65-1.26-1.09-1.95-1.33s-1.77-.36-3.26-.36h-1.31v13.4h-6.48ZM465.63,324.43h4.79c3.11,0,5.05-.13,5.82-.39.77-.26,1.38-.71,1.82-1.36.44-.64.66-1.45.66-2.41,0-1.08-.29-1.95-.86-2.62-.58-.66-1.39-1.08-2.44-1.26-.53-.07-2.1-.11-4.73-.11h-5.06v8.14Z"/>
            <path class="cls-8" d="M491.76,342.95v-32.09h6.48v32.09h-6.48Z"/>
            <path class="cls-8" d="M504.92,342.95v-32.09h6.3l13.13,21.43v-21.43h6.02v32.09h-6.5l-12.94-20.93v20.93h-6.02Z"/>
            <path class="cls-8" d="M552.61,331.15v-5.41h13.96v12.78c-1.36,1.31-3.32,2.47-5.9,3.47-2.58,1-5.18,1.5-7.83,1.5-3.36,0-6.28-.7-8.78-2.11-2.5-1.41-4.37-3.42-5.63-6.04-1.26-2.62-1.88-5.47-1.88-8.55,0-3.34.7-6.31,2.1-8.91s3.45-4.59,6.15-5.98c2.06-1.06,4.62-1.6,7.68-1.6,3.98,0,7.1.84,9.34,2.51,2.24,1.67,3.68,3.98,4.32,6.93l-6.44,1.2c-.45-1.58-1.3-2.82-2.55-3.73-1.25-.91-2.81-1.37-4.67-1.37-2.83,0-5.08.9-6.75,2.69-1.67,1.8-2.51,4.46-2.51,7.99,0,3.81.85,6.67,2.54,8.57s3.91,2.86,6.65,2.86c1.36,0,2.72-.27,4.08-.8,1.36-.53,2.54-1.18,3.51-1.94v-4.07h-7.42Z"/>
          </g>
          <g>
            <path class="cls-8" d="M619.11,342.95v-32.09h13.64c3.43,0,5.92.29,7.47.86,1.55.58,2.8,1.6,3.73,3.08.93,1.47,1.4,3.16,1.4,5.06,0,2.41-.71,4.4-2.12,5.97s-3.53,2.56-6.35,2.97c1.4.82,2.56,1.72,3.47,2.69.91.98,2.14,2.71,3.69,5.21l3.92,6.26h-7.75l-4.68-6.98c-1.66-2.5-2.8-4.07-3.41-4.72-.61-.65-1.26-1.09-1.95-1.33-.69-.24-1.77-.36-3.26-.36h-1.31v13.4h-6.48ZM625.59,324.43h4.79c3.11,0,5.05-.13,5.82-.39.77-.26,1.38-.71,1.82-1.36.44-.64.66-1.45.66-2.41,0-1.08-.29-1.95-.86-2.62-.58-.66-1.39-1.08-2.44-1.26-.53-.07-2.1-.11-4.73-.11h-5.06v8.14Z"/>
            <path class="cls-8" d="M652.58,342.95v-32.09h23.79v5.43h-17.31v7.11h16.11v5.41h-16.11v8.73h17.93v5.41h-24.41Z"/>
            <path class="cls-8" d="M681.96,332.5l6.3-.61c.38,2.12,1.15,3.67,2.31,4.66,1.16.99,2.73,1.49,4.7,1.49,2.09,0,3.66-.44,4.72-1.32,1.06-.88,1.59-1.91,1.59-3.1,0-.76-.22-1.4-.67-1.94-.44-.53-1.22-1-2.33-1.39-.76-.26-2.49-.73-5.19-1.4-3.47-.86-5.91-1.92-7.31-3.17-1.97-1.77-2.95-3.92-2.95-6.46,0-1.63.46-3.16,1.39-4.59.93-1.42,2.26-2.51,4.01-3.25s3.85-1.12,6.31-1.12c4.03,0,7.06.88,9.09,2.65,2.04,1.77,3.1,4.12,3.21,7.07l-6.48.28c-.28-1.65-.87-2.83-1.78-3.56-.91-.72-2.28-1.08-4.1-1.08s-3.36.39-4.42,1.16c-.69.5-1.03,1.16-1.03,1.99,0,.76.32,1.41.96,1.95.82.69,2.8,1.4,5.95,2.15,3.15.74,5.48,1.51,6.99,2.31,1.51.8,2.69,1.88,3.55,3.26s1.28,3.08,1.28,5.11c0,1.84-.51,3.56-1.53,5.17-1.02,1.61-2.47,2.8-4.33,3.58-1.87.78-4.2,1.17-6.98,1.17-4.06,0-7.17-.94-9.35-2.81-2.17-1.87-3.47-4.61-3.9-8.2Z"/>
            <path class="cls-8" d="M714.62,342.95v-32.09h23.79v5.43h-17.31v7.11h16.11v5.41h-16.11v8.73h17.93v5.41h-24.41Z"/>
            <path class="cls-8" d="M774.58,342.95h-7.05l-2.8-7.29h-12.83l-2.65,7.29h-6.87l12.5-32.09h6.85l12.85,32.09ZM762.65,330.25l-4.42-11.91-4.33,11.91h8.76Z"/>
            <path class="cls-8" d="M779.16,342.95v-32.09h13.64c3.43,0,5.92.29,7.47.86,1.55.58,2.8,1.6,3.73,3.08.93,1.47,1.4,3.16,1.4,5.06,0,2.41-.71,4.4-2.12,5.97s-3.53,2.56-6.35,2.97c1.4.82,2.56,1.72,3.47,2.69.91.98,2.14,2.71,3.69,5.21l3.92,6.26h-7.75l-4.68-6.98c-1.66-2.5-2.8-4.07-3.41-4.72-.61-.65-1.26-1.09-1.95-1.33-.69-.24-1.77-.36-3.26-.36h-1.31v13.4h-6.48ZM785.64,324.43h4.79c3.11,0,5.05-.13,5.82-.39.77-.26,1.38-.71,1.82-1.36.44-.64.66-1.45.66-2.41,0-1.08-.29-1.95-.86-2.62-.58-.66-1.39-1.08-2.44-1.26-.53-.07-2.1-.11-4.73-.11h-5.06v8.14Z"/>
            <path class="cls-8" d="M833.16,331.15l6.28,1.99c-.96,3.5-2.57,6.1-4.8,7.8-2.24,1.7-5.08,2.55-8.53,2.55-4.26,0-7.76-1.46-10.51-4.37s-4.12-6.89-4.12-11.94c0-5.34,1.38-9.49,4.14-12.44,2.76-2.96,6.38-4.43,10.88-4.43,3.92,0,7.11,1.16,9.57,3.48,1.46,1.37,2.55,3.34,3.28,5.91l-6.41,1.53c-.38-1.66-1.17-2.98-2.37-3.94-1.2-.96-2.67-1.45-4.39-1.45-2.38,0-4.31.85-5.79,2.56-1.48,1.71-2.22,4.47-2.22,8.3,0,4.06.73,6.95,2.19,8.67,1.46,1.72,3.36,2.58,5.69,2.58,1.72,0,3.2-.55,4.44-1.64s2.13-2.82,2.67-5.17Z"/>
            <path class="cls-8" d="M846.15,342.95v-32.09h6.48v12.63h12.7v-12.63h6.48v32.09h-6.48v-14.03h-12.7v14.03h-6.48Z"/>
            <path class="cls-8" d="M893.15,310.86h6.48v17.38c0,2.76.08,4.55.24,5.36.28,1.31.94,2.37,1.98,3.16s2.47,1.19,4.28,1.19,3.23-.38,4.16-1.13c.93-.75,1.5-1.67,1.68-2.77s.28-2.91.28-5.45v-17.75h6.48v16.85c0,3.85-.18,6.57-.53,8.16-.35,1.59-1,2.93-1.94,4.03-.94,1.09-2.2,1.97-3.78,2.62-1.58.65-3.63.97-6.17.97-3.06,0-5.39-.35-6.97-1.06-1.58-.71-2.84-1.63-3.75-2.76s-1.52-2.32-1.82-3.56c-.42-1.84-.63-4.55-.63-8.14v-17.12Z"/>
            <path class="cls-8" d="M926.75,342.95v-32.09h6.3l13.13,21.43v-21.43h6.02v32.09h-6.5l-12.94-20.93v20.93h-6.02Z"/>
            <path class="cls-8" d="M959.99,342.95v-32.09h6.48v32.09h-6.48Z"/>
            <path class="cls-8" d="M981.94,342.95l-11.47-32.09h7.03l8.12,23.75,7.86-23.75h6.87l-11.49,32.09h-6.92Z"/>
            <path class="cls-8" d="M1004.78,342.95v-32.09h23.79v5.43h-17.31v7.11h16.11v5.41h-16.11v8.73h17.93v5.41h-24.41Z"/>
            <path class="cls-8" d="M1035.82,342.95v-32.09h13.64c3.43,0,5.92.29,7.47.86,1.55.58,2.8,1.6,3.73,3.08.93,1.47,1.4,3.16,1.4,5.06,0,2.41-.71,4.4-2.12,5.97s-3.53,2.56-6.35,2.97c1.4.82,2.56,1.72,3.47,2.69.91.98,2.14,2.71,3.69,5.21l3.92,6.26h-7.75l-4.68-6.98c-1.66-2.5-2.8-4.07-3.41-4.72-.61-.65-1.26-1.09-1.95-1.33-.69-.24-1.77-.36-3.26-.36h-1.31v13.4h-6.48ZM1042.3,324.43h4.79c3.11,0,5.05-.13,5.82-.39.77-.26,1.38-.71,1.82-1.36.44-.64.66-1.45.66-2.41,0-1.08-.29-1.95-.86-2.62-.58-.66-1.39-1.08-2.44-1.26-.53-.07-2.1-.11-4.73-.11h-5.06v8.14Z"/>
            <path class="cls-8" d="M1067.65,332.5l6.3-.61c.38,2.12,1.15,3.67,2.31,4.66,1.16.99,2.73,1.49,4.7,1.49,2.09,0,3.66-.44,4.72-1.32s1.59-1.91,1.59-3.1c0-.76-.22-1.4-.67-1.94-.44-.53-1.22-1-2.33-1.39-.76-.26-2.49-.73-5.19-1.4-3.47-.86-5.91-1.92-7.31-3.17-1.97-1.77-2.95-3.92-2.95-6.46,0-1.63.46-3.16,1.39-4.59.93-1.42,2.26-2.51,4.01-3.25s3.85-1.12,6.31-1.12c4.03,0,7.06.88,9.09,2.65,2.04,1.77,3.1,4.12,3.21,7.07l-6.48.28c-.28-1.65-.87-2.83-1.78-3.56-.91-.72-2.28-1.08-4.1-1.08s-3.36.39-4.42,1.16c-.69.5-1.03,1.16-1.03,1.99,0,.76.32,1.41.96,1.95.82.69,2.8,1.4,5.95,2.15,3.15.74,5.48,1.51,6.99,2.31,1.51.8,2.69,1.88,3.55,3.26s1.28,3.08,1.28,5.11c0,1.84-.51,3.56-1.53,5.17-1.02,1.61-2.47,2.8-4.33,3.58-1.87.78-4.2,1.17-6.98,1.17-4.06,0-7.17-.94-9.35-2.81-2.17-1.87-3.47-4.61-3.9-8.2Z"/>
            <path class="cls-8" d="M1100.12,342.95v-32.09h6.48v32.09h-6.48Z"/>
            <path class="cls-8" d="M1121.11,342.95v-26.66h-9.52v-5.43h25.5v5.43h-9.5v26.66h-6.48Z"/>
            <path class="cls-8" d="M1150.82,342.95v-13.51l-11.75-18.58h7.6l7.55,12.7,7.4-12.7h7.46l-11.8,18.63v13.46h-6.46Z"/>
          </g>
        </g>
        <circle class="cls-8" cx="228.91" cy="329.31" r="7"/>
        <circle class="cls-8" cx="593.91" cy="329.31" r="7"/>
      </g>
      <g class="cls-7">
        <g class="cls-3">
          <g>
            <rect class="cls-9" x="-119.2" y="214.08" width="73.36" height="1085.51" transform="translate(-559.33 163.32) rotate(-45)"/>
            <rect x="-15.45" y="110.33" width="73.36" height="1085.51" transform="translate(-455.58 206.3) rotate(-45)"/>
            <rect class="cls-6" x="-67.33" y="162.21" width="73.36" height="1085.51" transform="translate(-507.46 184.81) rotate(-45)"/>
          </g>
          <rect class="cls-5" x="-542.74" y="487.13" width="889.58" height="799.75" transform="translate(598.52 329.06) rotate(45)"/>
        </g>
      </g>
    </g>
  </g>
</svg>