<?xml version="1.0" encoding="UTF-8"?>
<svg id="Layer_1" data-name="Layer 1" xmlns="http://www.w3.org/2000/svg" xmlns:xlink="http://www.w3.org/1999/xlink" version="1.1" viewBox="0 0 1171.6 362.8">
  <defs>
    <style>
      .cls-1 {
        fill: url(#linear-gradient);
        mix-blend-mode: multiply;
        opacity: .6;
      }

      .cls-1, .cls-2, .cls-3, .cls-4, .cls-5, .cls-6, .cls-7 {
        stroke-width: 0px;
      }

      .cls-1, .cls-8 {
        isolation: isolate;
      }

      .cls-9 {
        clip-path: url(#clippath);
      }

      .cls-2 {
        fill: none;
      }

      .cls-3 {
        fill: #5f3b1e;
      }

      .cls-10 {
        clip-path: url(#clippath-1);
      }

      .cls-4 {
        fill: #000;
      }

      .cls-5 {
        fill: #84c3e8;
      }

      .cls-6 {
        fill: #0c2753;
      }

      .cls-7 {
        fill: #fff;
      }
    </style>
    <clipPath id="clippath">
      <path class="cls-2" d="M643.6,1061.1c9.1,9.6,17.8,18.7,26.4,27.9,6.1,6.6,12.1,13.3,18.2,19.8,26.1,27.8,52.3,55.5,78.3,83.3,2.6,2.8,4.5,3.1,8,1.3,52.3-26.8,104.7-53.4,157.1-80,5-2.5,10.1-4.9,14.9-7.8,3-1.8,5.2-1.3,8.1.3,48.9,27.7,97.8,55.5,147,82.8,26.6,14.8,53.8,28.7,80.7,43,.4.2.7.7,1.8,1.7H19.3c-.1-.5-.2-.9-.3-1.4,5.4-2.6,10.8-5.2,16.2-7.6,22.4-9.8,44.8-19.5,67.2-29.3,27.6-12.1,55.2-24.3,82.9-36.5,16.1-7.1,32.3-14.2,48.5-21.2,17.7-7.7,35.3-15.5,53.1-23,2.1-.9,5.1-.9,7.2,0,18.9,7.4,37.6,15.2,56.4,22.8,16.5,6.7,33.1,13.2,49.8,19.6,22.5,8.6,45.1,17.1,67.7,25.4,2,.7,5.4.1,7.1-1.2,15-11.7,29.8-23.8,44.7-35.6,17.9-14.2,35.8-28.4,53.7-42.6.8-.6,1.5-1.3,2.2-2.1,2.9-3.1,5.8-4.1,9.5-1.1,1.8,1.4,4.4,1.7,6.2,3.1,4.8,3.7,8.3,1.8,12-1.8,11.9-11.9,23.9-23.7,35.8-35.6,1.3-1.3,2.6-2.5,4.5-4.3h0ZM624,1101.5c5-.8,10.8,2.2,8.5-5.9-.5-1.9,1.5-4.6,2.9-8.3.6,2.8.9,4.1,1.4,6,1.8-1.2,3-2.1,4.3-3,.3.2.6.3.9.4-1.5,3.1-3,6.2-5,10.2,2.7,0,5.1.4,7.2-.2.7-.2.5-3.2.8-4.9.2-1.1.2-2.3.7-3.4,1.8-4.6,3.8-9.2,5.9-14.1-5.4-3.5-7.9,2.2-11.7,5.5-.4-1.8-.3-3.6-1-4.1-1.6-1.1-3.6-1.9-5.5-2-.6,0-2.1,2.5-1.9,3.6,1,5.8-1.2,10.5-4,15.2-.8,1.3-1.7,2.6-3.3,5.2h0Z"/>
    </clipPath>
    <clipPath id="clippath-1">
      <rect class="cls-2" x="-197.5" y="916.8" width="1600.3" height="405.2"/>
    </clipPath>
    <linearGradient id="linear-gradient" x1="-456.8" y1="620" x2="-150.6" y2="620" gradientTransform="translate(-792.3 1455.8) rotate(90) scale(1.2 -1.1)" gradientUnits="userSpaceOnUse">
      <stop offset="0" stop-color="#fff"/>
      <stop offset=".4" stop-color="#fdfdfd"/>
      <stop offset=".5" stop-color="#f6f6f6"/>
      <stop offset=".6" stop-color="#eaeaea"/>
      <stop offset=".7" stop-color="#d9d9d9"/>
      <stop offset=".8" stop-color="#c3c3c3"/>
      <stop offset=".8" stop-color="#a8a8a8"/>
      <stop offset=".9" stop-color="#878787"/>
      <stop offset=".9" stop-color="#626262"/>
      <stop offset=".9" stop-color="#373737"/>
      <stop offset="1" stop-color="#090909"/>
      <stop offset="1" stop-color="#000"/>
    </linearGradient>
  </defs>
  <g class="cls-8">
    <g id="Layer_1-2" data-name="Layer 1">
      <g>
        <path class="cls-6" d="M627.9,0c9.1,9.6,17.8,18.7,26.4,27.9,6.1,6.5,12.1,13.3,18.2,19.8,26.1,27.8,52.3,55.5,78.3,83.3,2.6,2.8,4.5,3.1,8,1.3,52.3-26.8,104.7-53.4,157.1-80,5-2.5,10.1-4.9,14.9-7.8,3-1.8,5.2-1.3,8.1.3,48.9,27.7,97.8,55.5,147,82.8,26.6,14.8,53.8,28.7,80.7,43,.4.2.7.6,1.8,1.7H3.6c0-.5-.2-.9-.3-1.4,5.4-2.6,10.7-5.2,16.2-7.6,22.4-9.8,44.8-19.5,67.2-29.3,27.6-12.1,55.2-24.3,82.9-36.5,16.1-7.1,32.3-14.2,48.5-21.2,17.7-7.7,35.4-15.5,53.1-23,2.1-.9,5.1-.9,7.2,0,18.9,7.4,37.6,15.2,56.4,22.8,16.5,6.7,33.1,13.2,49.8,19.6,22.5,8.6,45.1,17.1,67.7,25.4,2,.7,5.4.1,7.1-1.2,15-11.7,29.8-23.8,44.7-35.6,17.9-14.2,35.8-28.4,53.7-42.6.8-.6,1.5-1.3,2.2-2.1,2.9-3,5.8-4.1,9.5-1.1,1.8,1.4,4.4,1.7,6.2,3.1,4.8,3.7,8.3,1.8,12-1.8,11.9-11.9,23.9-23.7,35.8-35.6,1.3-1.3,2.6-2.5,4.5-4.3h0ZM608.2,40.3c5-.8,10.8,2.2,8.5-5.9-.5-2,1.5-4.6,2.9-8.3.6,2.8.9,4.1,1.4,6,1.8-1.2,3-2.1,4.3-3,.3.1.6.3.9.5-1.5,3.1-3,6.2-5,10.2,2.7,0,5.1.4,7.2-.2.7-.2.5-3.2.8-4.9.2-1.1.2-2.3.7-3.4,1.8-4.6,3.8-9.1,5.9-14.1-5.4-3.5-7.9,2.2-11.7,5.5-.4-1.8-.3-3.6-1-4.1-1.6-1.1-3.6-1.9-5.5-2-.6,0-2.1,2.5-1.9,3.6,1,5.8-1.2,10.5-4,15.2-.8,1.3-1.7,2.6-3.3,5.2h0Z"/>
        <path class="cls-7" d="M608.2,40.3c1.6-2.6,2.5-3.9,3.3-5.2,2.8-4.6,5.1-9.4,4-15.2-.2-1.1,1.3-3.7,1.9-3.6,1.9.2,4,.9,5.5,2,.8.5.6,2.3,1,4.1,3.8-3.4,6.3-9,11.7-5.5-2.1,5-4.1,9.5-5.9,14.1-.4,1-.5,2.3-.7,3.4-.3,1.7,0,4.7-.8,4.9-2.1.7-4.5.2-7.2.2,2-4,3.5-7.1,5-10.2-.3-.1-.6-.3-.9-.5-1.3.9-2.5,1.8-4.3,3-.4-1.9-.7-3.2-1.4-6-1.3,3.6-3.4,6.3-2.9,8.3,2.3,8.2-3.5,5.1-8.5,5.9h0Z"/>
      </g>
      <g class="cls-9">
        <g class="cls-10">
          <g>
            <g>
              <rect class="cls-5" x="-119.2" y="214.1" width="73.4" height="1085.5" transform="translate(-559.3 163.3) rotate(-45)"/>
              <rect class="cls-4" x="-15.4" y="110.3" width="73.4" height="1085.5" transform="translate(-455.6 206.3) rotate(-45)"/>
              <rect class="cls-3" x="-67.3" y="162.2" width="73.4" height="1085.5" transform="translate(-507.5 184.8) rotate(-45)"/>
            </g>
            <rect class="cls-1" x="-497.8" y="442.2" width="799.7" height="889.6" transform="translate(-655.9 190.5) rotate(-45)"/>
          </g>
        </g>
      </g>
    </g>
  </g>
</svg>